<?xml version="1.0" encoding="UTF-8"?>
<svg width="101px" height="100px" viewBox="0 0 201 200" version="1.1" xmlns="http://www.w3.org/2000/svg" xmlns:xlink="http://www.w3.org/1999/xlink">
    <title>dp-logo-icon</title>
    <g id="dp-logo-icon" stroke="none" stroke-width="1" fill="none" fill-rule="evenodd">
        <ellipse id="Oval" fill="#4A90E2" cx="100.5" cy="100" rx="100.5" ry="100"></ellipse>
        <path d="M165,67 L165,163.772864 L145.209423,163.772864 L145.209317,158.638602 C139.678838,162.037478 133.154326,164 126.167021,164 C106.192527,164 90,147.962122 90,128.178398 C90,108.394673 106.192527,92.3567957 126.167021,92.3567957 C133.154326,92.3567957 139.678838,94.3193181 145.209317,97.7181939 L145.209423,67 L165,67 Z M126.669341,109.770075 C116.40467,109.770075 108.083511,118.011762 108.083511,128.178398 C108.083511,138.345034 116.40467,146.586721 126.669341,146.586721 C136.493414,146.586721 144.53724,139.037377 145.209682,129.476429 L145.209682,126.880367 C144.53724,117.319418 136.493414,109.770075 126.669341,109.770075 Z" id="Combined-Shape-Copy" fill-opacity="0.640652316" fill="#FFFFFF" transform="translate(127.500000, 115.500000) rotate(-180.000000) translate(-127.500000, -115.500000) "></path>
        <path d="M110,42 L110,138.772864 L90.2094228,138.772864 L90.2093167,133.638602 C84.6788384,137.037478 78.1543257,139 71.1670215,139 C51.1925271,139 35,122.962122 35,103.178398 C35,83.3946733 51.1925271,67.3567957 71.1670215,67.3567957 C78.1543257,67.3567957 84.6788384,69.3193181 90.2093167,72.7181939 L90.2094228,42 L110,42 Z M71.6693412,84.7700745 C61.4046705,84.7700745 53.0835107,93.0117616 53.0835107,103.178398 C53.0835107,113.345034 61.4046705,121.586721 71.6693412,121.586721 C81.4934138,121.586721 89.5372402,114.037377 90.2096821,104.476429 L90.2096821,101.880367 C89.5372402,92.3194184 81.4934138,84.7700745 71.6693412,84.7700745 Z" id="Combined-Shape" fill="#FFFFFF"></path>
    </g>
</svg>