<?xml version="1.0" encoding="UTF-8"?>
<svg id="katman_2" data-name="katman 2" xmlns="http://www.w3.org/2000/svg" xmlns:xlink="http://www.w3.org/1999/xlink" viewBox="0 0 53.04 67.42">
  <defs>
    <style>
      .cls-1 {
        fill: url(#Adsız_degrade_41);
      }

      .cls-2 {
        fill: #15853f;
      }
    </style>
    <linearGradient id="Adsız_degrade_41" data-name="Adsız degrade 41" x1="0" y1="33.71" x2="24.42" y2="33.71" gradientUnits="userSpaceOnUse">
      <stop offset="0" stop-color="#7ed957"/>
      <stop offset=".68" stop-color="#15853f"/>
    </linearGradient>
  </defs>
  <g id="katman_1" data-name="katman 1">
    <g>
      <path class="cls-1" d="M24.03,19.89c.26-.38.39-.85.39-1.41v-1.44c0-.56-.13-1.04-.39-1.44-.26-.4-.71-.82-1.35-1.26L2.46.54c-.52-.36-.94-.54-1.26-.54S.6.11.36.33c-.24.22-.36.53-.36.93v4.5c0,.52.12.93.36,1.23.24.3.62.63,1.14.99l14.99,10.21L1.5,27.54c-.52.36-.9.69-1.14.99-.24.3-.36.69-.36,1.17v8.02c0,.52.12.93.36,1.23.24.3.62.63,1.14.99l15.21,9.35L1.5,59.5c-.52.36-.9.69-1.14.99-.24.3-.36.69-.36,1.17v4.56c0,.36.11.65.33.87.22.22.51.33.87.33s.78-.16,1.26-.48l20.22-13.86c.64-.44,1.09-.85,1.35-1.23.26-.38.39-.85.39-1.41v-1.44c0-.56-.13-1.04-.39-1.44-.26-.4-.71-.82-1.35-1.26l-18.41-12.56,18.41-12.62c.64-.44,1.09-.85,1.35-1.23Z"/>
      <path class="cls-2" d="M52.68,28.53c-.24-.3-.62-.63-1.14-.99l-21.18-13.2c-.64.44-1.09.86-1.35,1.26-.26.4-.39.88-.39,1.44v1.44c0,.56.13,1.03.39,1.41.26.38.71.79,1.35,1.23l18.37,12.59-18.37,12.59c-.64.44-1.09.85-1.35,1.23-.26.38-.39.85-.39,1.41v1.44c0,.56.13,1.04.39,1.44.26.4.71.82,1.35,1.26l21.18-13.2c.52-.36.9-.69,1.14-.99.24-.3.36-.69.36-1.17v-8.02c0-.48-.12-.87-.36-1.17Z"/>
      <path class="cls-2" d="M.36,38.89c.24.3.62.63,1.14.99l21.18,13.2c.64-.44,1.09-.86,1.35-1.26.26-.4.39-.88.39-1.44v-1.44c0-.56-.13-1.03-.39-1.41-.26-.38-.71-.79-1.35-1.23l-18.37-12.59,18.37-12.59c.64-.44,1.09-.85,1.35-1.23.26-.38.39-.85.39-1.41v-1.44c0-.56-.13-1.04-.39-1.44-.26-.4-.71-.82-1.35-1.26L1.5,27.54c-.52.36-.9.69-1.14.99-.24.3-.36.69-.36,1.17v8.02c0,.48.12.87.36,1.17Z"/>
    </g>
  </g>
</svg>