<?xml version="1.0" encoding="UTF-8"?>
<svg id="katman_2" data-name="katman 2" xmlns="http://www.w3.org/2000/svg" xmlns:xlink="http://www.w3.org/1999/xlink" viewBox="0 0 225.67 61.96">
  <defs>
    <style>
      .cls-1 {
        fill: url(#Adsız_degrade_41);
      }

      .cls-2 {
        fill: #d1d5db;
        font-family: Courier, Courier;
        font-size: 30px;
      }

      .cls-3 {
        fill: #15853f;
      }
    </style>
    <linearGradient id="Adsız_degrade_41" data-name="Adsız degrade 41" x1="0" y1="30.98" x2="22.44" y2="30.98" gradientUnits="userSpaceOnUse">
      <stop offset="0" stop-color="#7ed957"/>
      <stop offset=".68" stop-color="#15853f"/>
    </linearGradient>
  </defs>
  <g id="katman_1" data-name="katman 1">
    <g>
      <text class="cls-2" transform="translate(63.64 23.68)"><tspan x="0" y="0">Buse </tspan><tspan x="0" y="26">Durudoğan</tspan></text>
      <g>
        <path class="cls-1" d="M22.08,18.28c.24-.35.36-.78.36-1.3v-1.32c0-.51-.12-.95-.36-1.32-.24-.37-.65-.75-1.24-1.16L2.26.5c-.48-.33-.86-.5-1.16-.5S.55.1.33.3c-.22.2-.33.49-.33.86v4.14c0,.48.11.85.33,1.13.22.28.57.58,1.05.91l13.78,9.39L1.38,25.31c-.48.33-.83.63-1.05.91-.22.28-.33.63-.33,1.08v7.37c0,.48.11.85.33,1.13.22.28.57.58,1.05.91l13.98,8.6L1.38,54.68c-.48.33-.83.63-1.05.91-.22.28-.33.63-.33,1.08v4.19c0,.33.1.6.3.8.2.2.47.3.8.3s.72-.15,1.16-.44l18.58-12.74c.59-.4,1-.78,1.24-1.13.24-.35.36-.78.36-1.3v-1.32c0-.51-.12-.95-.36-1.32-.24-.37-.65-.75-1.24-1.16L3.93,31.01l16.92-11.6c.59-.4,1-.78,1.24-1.13Z"/>
        <path class="cls-3" d="M48.41,26.22c-.22-.28-.57-.58-1.05-.91l-19.46-12.13c-.59.41-1,.79-1.24,1.16-.24.37-.36.81-.36,1.32v1.32c0,.52.12.95.36,1.3.24.35.65.73,1.24,1.13l16.88,11.57-16.88,11.57c-.59.4-1,.78-1.24,1.13-.24.35-.36.78-.36,1.3v1.32c0,.51.12.95.36,1.32.24.37.65.75,1.24,1.16l19.46-12.13c.48-.33.83-.63,1.05-.91.22-.28.33-.63.33-1.08v-7.37c0-.44-.11-.8-.33-1.08Z"/>
        <path class="cls-3" d="M.33,35.74c.22.28.57.58,1.05.91l19.46,12.13c.59-.41,1-.79,1.24-1.16.24-.37.36-.81.36-1.32v-1.32c0-.52-.12-.95-.36-1.3-.24-.35-.65-.73-1.24-1.13L3.96,30.98l16.88-11.57c.59-.4,1-.78,1.24-1.13.24-.35.36-.78.36-1.3v-1.32c0-.51-.12-.95-.36-1.32-.24-.37-.65-.75-1.24-1.16L1.38,25.31c-.48.33-.83.63-1.05.91-.22.28-.33.63-.33,1.08v7.37c0,.44.11.8.33,1.08Z"/>
      </g>
    </g>
  </g>
</svg>