<?xml version="1.0" encoding="UTF-8"?>
<svg id="katman_2" data-name="katman 2" xmlns="http://www.w3.org/2000/svg" xmlns:xlink="http://www.w3.org/1999/xlink" viewBox="0 0 210.64 61.96">
  <defs>
    <style>
      .cls-1 {
        fill: url(#Adsız_degrade_41);
      }

      .cls-2 {
        fill: #d1d5db;
        font-family: Courier, Courier;
        font-size: 30px;
      }

      .cls-3 {
        fill: #15853f;
      }
    </style>
    <linearGradient id="Adsız_degrade_41" data-name="Adsız degrade 41" x1="170.44" y1="29.98" x2="188.95" y2="29.98" gradientUnits="userSpaceOnUse">
      <stop offset="0" stop-color="#7ed957"/>
      <stop offset=".68" stop-color="#15853f"/>
    </linearGradient>
  </defs>
  <g id="katman_1" data-name="katman 1">
    <g>
      <text class="cls-2" transform="translate(90.01 23.68)"><tspan x="0" y="0">Buse</tspan><tspan x="-90.01" y="26">Durudoğan</tspan></text>
      <g>
        <path class="cls-1" d="M188.65,19.5c.2-.29.3-.64.3-1.07v-1.09c0-.42-.1-.79-.3-1.09-.2-.3-.54-.62-1.02-.96l-15.33-10.46c-.39-.27-.71-.41-.95-.41s-.45.08-.64.25c-.18.17-.27.4-.27.71v3.41c0,.39.09.7.27.93.18.23.47.48.86.75l11.37,7.74-11.37,7.08c-.39.27-.68.52-.86.75-.18.23-.27.52-.27.89v6.08c0,.39.09.7.27.93.18.23.47.48.86.75l11.53,7.09-11.53,7.74c-.39.27-.68.52-.86.75-.18.23-.27.52-.27.89v3.46c0,.27.08.49.25.66.17.17.39.25.66.25s.59-.12.95-.36l15.33-10.51c.48-.33.83-.64,1.02-.93.2-.29.3-.64.3-1.07v-1.09c0-.42-.1-.79-.3-1.09-.2-.3-.54-.62-1.02-.96l-13.95-9.52,13.95-9.57c.48-.33.83-.64,1.02-.93Z"/>
        <path class="cls-3" d="M210.37,26.05c-.18-.23-.47-.48-.86-.75l-16.06-10.01c-.48.33-.83.65-1.02.96-.2.3-.3.67-.3,1.09v1.09c0,.42.1.78.3,1.07.2.29.54.6,1.02.93l13.92,9.54-13.92,9.54c-.48.33-.83.64-1.02.93-.2.29-.3.64-.3,1.07v1.09c0,.42.1.79.3,1.09.2.3.54.62,1.02.96l16.06-10.01c.39-.27.68-.52.86-.75.18-.23.27-.52.27-.89v-6.08c0-.36-.09-.66-.27-.89Z"/>
        <path class="cls-3" d="M170.71,33.91c.18.23.47.48.86.75l16.06,10.01c.48-.33.83-.65,1.02-.96.2-.3.3-.67.3-1.09v-1.09c0-.42-.1-.78-.3-1.07-.2-.29-.54-.6-1.02-.93l-13.92-9.54,13.92-9.54c.48-.33.83-.64,1.02-.93.2-.29.3-.64.3-1.07v-1.09c0-.42-.1-.79-.3-1.09-.2-.3-.54-.62-1.02-.96l-16.06,10.01c-.39.27-.68.52-.86.75-.18.23-.27.52-.27.89v6.08c0,.36.09.66.27.89Z"/>
      </g>
    </g>
  </g>
</svg>